<?xml version="1.0" encoding="iso-8859-1"?>
<!-- Generator: Adobe Illustrator 19.0.0, SVG Export Plug-In . SVG Version: 6.00 Build 0)  -->
<svg version="1.1" id="Capa_1" xmlns="http://www.w3.org/2000/svg" xmlns:xlink="http://www.w3.org/1999/xlink" x="0px" y="0px"
	 viewBox="0 0 204.819 204.819" style="enable-background:new 0 0 204.819 204.819;" xml:space="preserve">
<g>
	<g>
		<path d="M191.105,119.883h-27.938V71.686c0-1.864-1.512-3.375-3.375-3.375h-21.826c0,0,0.04-31.194,0.04-31.914
			c1.782-2.45,2.911-5.945,2.911-11.807c0-10.473-8.659-22.656-9.028-23.169c-0.634-0.883-1.655-1.407-2.742-1.407
			c-1.087,0-2.108,0.524-2.741,1.408c-0.369,0.513-9.023,12.695-9.023,23.168c0,6.088,1.363,9.838,3.248,12.276
			c0,0.611-0.018,31.445-0.018,31.445h-9.52c0,0,0.037-31.208,0.037-31.928c1.783-2.45,2.91-5.945,2.91-11.807
			c0-10.473-8.658-22.656-9.027-23.169C104.377,0.524,103.357,0,102.27,0c-1.087,0-2.108,0.524-2.742,1.408
			c-0.368,0.513-9.023,12.695-9.023,23.168c0,6.088,1.362,9.838,3.248,12.276c0,0.617-0.012,31.459-0.012,31.459h-9.523
			c0,0,0.028-31.208,0.028-31.928c1.782-2.45,2.911-5.945,2.911-11.807c0-10.473-8.659-22.656-9.028-23.169
			C77.495,0.524,76.474,0,75.387,0c-1.087,0-2.108,0.524-2.742,1.408c-0.368,0.513-9.023,12.695-9.023,23.168
			c0,6.088,1.363,9.838,3.248,12.276c0,0.617-0.01,31.459-0.01,31.459H45.042c-1.864,0-3.375,1.511-3.375,3.375v48.197H13.715
			c-1.864,0-3.375,1.512-3.375,3.375v10.024v45.59v22.572c0,1.864,1.511,3.375,3.375,3.375h177.389c1.864,0,3.375-1.511,3.375-3.375
			v-78.187C194.48,121.393,192.969,119.883,191.105,119.883z M129.146,9.745c2.234,3.94,5.019,9.853,5.019,14.845
			c0,3.576-0.623,9.605-4.801,9.798c-0.072,0.003-0.144,0.009-0.215,0.017c-0.07-0.008-0.141-0.013-0.214-0.017
			c-4.181-0.193-4.806-6.222-4.806-9.798C124.13,19.598,126.915,13.685,129.146,9.745z M131.217,41.135l-0.003,27.176h-3.854
			l0.006-27.176H131.217z M102.271,9.731c2.234,3.94,5.019,9.853,5.019,14.845c0,3.576-0.623,9.605-4.801,9.799
			c-0.072,0.003-0.143,0.009-0.214,0.017c-0.07-0.008-0.142-0.013-0.214-0.017c-4.182-0.193-4.806-6.222-4.806-9.799
			C97.255,19.584,100.039,13.671,102.271,9.731z M104.342,41.121v27.19h-3.85v-27.19H104.342z M75.388,9.731
			c2.234,3.94,5.019,9.853,5.019,14.845c0,3.576-0.624,9.605-4.802,9.799c-0.072,0.003-0.143,0.009-0.214,0.017
			c-0.07-0.008-0.142-0.013-0.214-0.017c-4.181-0.193-4.806-6.222-4.806-9.799C70.372,19.584,73.156,13.671,75.388,9.731z
			 M77.468,68.311H73.61l-0.001-27.19h3.851L77.468,68.311z M156.417,75.061v14.702c-7.614,14.071-23.695,14.485-25.531,14.485
			c-0.096,0-0.155-0.001-0.164-0.001c-0.036-0.001-0.072-0.002-0.107-0.002c-17.814,0-24.812-15.346-25.098-15.989
			c-0.531-1.222-1.73-2.017-3.062-2.03c-0.011,0-0.022,0-0.033,0c-1.319,0-2.518,0.769-3.068,1.969
			c-7.001,15.279-23.169,16.054-26.339,16.054c-0.141,0-0.227-0.002-0.241-0.003c-0.042-0.001-0.084-0.002-0.126-0.002
			c-14.511,0-21.847-10.21-24.229-14.368l-0.002-14.815H156.417z M187.73,198.069H17.09v-19.197v-9.325
			c5.163,4.616,12.818,8.892,23.459,8.908c0.102,0.003,0.278,0.007,0.52,0.007c3.489,0,20.769-0.771,30.814-15.529
			c4.404,6.219,13.625,15.502,29.423,15.523c1.574,0.048,20.585,0.26,31.328-15.52c4.385,6.201,13.604,15.505,29.448,15.52
			c1.158,0.026,14.886,0.077,25.646-9.468l0.002,11.276V198.069z M187.73,157.583v1.246c-8.903,13.07-25.356,12.869-25.521,12.876
			c-0.029-0.001-0.059-0.001-0.09-0.001c-18.787,0-26.16-16.179-26.459-16.858c-0.531-1.222-1.73-2.017-3.063-2.029
			c-0.011,0-0.022,0-0.033,0c-1.319,0-2.519,0.769-3.069,1.971c-7.951,17.369-27.195,16.941-28.004,16.92
			c-0.043-0.002-0.085-0.003-0.128-0.003c-18.219,0-25.698-15.194-26.413-16.748c-0.493-1.252-1.714-2.136-3.142-2.136
			c-1.392,0-2.587,0.845-3.103,2.049c-7.973,17.287-27.165,16.861-27.97,16.838c-0.043-0.002-0.086-0.003-0.128-0.003
			c-11.943,0-19.315-6.415-23.516-12.146v-0.676v-25.601v-6.649h100.275c1.863,0,3.375-1.511,3.375-3.375
			c0-1.863-1.512-3.375-3.375-3.375H48.417v-18.975c4.955,5.016,12.776,10.072,24.177,10.088c0.079,0.002,0.22,0.005,0.419,0.005
			c3.496,0,19.856-0.776,29.475-14.696c4.252,5.941,13.058,14.673,28.081,14.691c0.062,0.001,0.168,0.003,0.315,0.003
			c1.849,0,15.471-0.348,25.53-10.138v19.021h-10.4c-1.863,0-3.375,1.512-3.375,3.375c0,1.864,1.512,3.375,3.375,3.375h13.775h7.226
			h20.714l0.001,8.042V157.583z"/>
	</g>
</g>
<g>
</g>
<g>
</g>
<g>
</g>
<g>
</g>
<g>
</g>
<g>
</g>
<g>
</g>
<g>
</g>
<g>
</g>
<g>
</g>
<g>
</g>
<g>
</g>
<g>
</g>
<g>
</g>
<g>
</g>
</svg>
